<?xml version="1.0" encoding="utf-8"?>
<!-- Generator: Adobe Illustrator 25.1.0, SVG Export Plug-In . SVG Version: 6.00 Build 0)  -->
<svg version="1.1" id="Capa_1" xmlns="http://www.w3.org/2000/svg" xmlns:xlink="http://www.w3.org/1999/xlink" x="0px" y="0px"
	 viewBox="0 0 566.9 180.4" style="enable-background:new 0 0 566.9 180.4;" xml:space="preserve">
<style type="text/css">
	.st0{fill:#FFFFFF;}
</style>
<g>
	<g>
		<path class="st0" d="M190.2,146.8c1-1.9,1.8-3.4,2.5-4.6l7.8-13.2h4.1l-4.7,22.5h-2.7l2.5-11.8c0.3-1.4,0.6-2.7,0.9-4.1
			c0.3-1.3,0.6-2.5,0.9-3.4h-0.2c-0.9,1.9-2.1,4-3.5,6.4l-7.8,12.9h-1.3l-2.4-12.5c-0.4-2.3-0.8-4.6-1.2-6.8H185
			c-0.4,2.7-0.8,5-1.2,7l-2.5,12.3h-2.7l4.7-22.5h3.8l2.5,13.7C189.8,144.3,190,145.7,190.2,146.8L190.2,146.8z"/>
		<path class="st0" d="M215.5,148.9c-0.4,0.6-0.8,1-1.2,1.4c-0.4,0.4-0.9,0.7-1.3,0.9c-0.4,0.2-0.9,0.4-1.3,0.5
			c-0.4,0.1-0.9,0.2-1.3,0.2c-0.7,0-1.3-0.1-1.9-0.4c-0.5-0.3-1-0.6-1.4-1.1c-0.4-0.5-0.7-1-0.8-1.7c-0.2-0.7-0.3-1.4-0.3-2.2
			c0-0.9,0.1-1.8,0.2-2.7c0.2-0.9,0.4-1.8,0.7-2.7c0.3-0.9,0.7-1.6,1.2-2.4c0.5-0.7,1-1.4,1.6-1.9c0.6-0.5,1.3-1,2-1.3
			c0.7-0.3,1.5-0.5,2.4-0.5c0.9,0,1.6,0.2,2.3,0.5c0.7,0.4,1.2,0.9,1.5,1.5h0.1l0.8-1.6h2.1l-2.6,12.3c-0.1,0.4-0.1,0.7-0.1,1
			c0,0.3,0.1,0.5,0.2,0.6c0.2,0.1,0.4,0.2,0.8,0.2c0.3,0,0.7,0,1.1-0.1l-0.5,2.2c-0.5,0.1-1,0.2-1.6,0.2c-0.9,0-1.6-0.2-2-0.7
			C215.7,150.7,215.5,149.9,215.5,148.9L215.5,148.9z M217.4,139.1c-0.1-0.2-0.3-0.4-0.5-0.6c-0.2-0.2-0.4-0.4-0.7-0.6
			c-0.3-0.2-0.5-0.3-0.9-0.4c-0.3-0.1-0.7-0.2-1.1-0.2c-0.7,0-1.3,0.1-1.8,0.4c-0.5,0.3-1,0.7-1.4,1.2c-0.4,0.5-0.8,1-1.1,1.6
			c-0.3,0.6-0.6,1.3-0.7,1.9c-0.2,0.7-0.3,1.3-0.4,1.9c-0.1,0.6-0.1,1.2-0.1,1.8c0,0.7,0.1,1.3,0.2,1.8c0.1,0.5,0.3,0.8,0.5,1.1
			c0.2,0.3,0.5,0.4,0.8,0.6c0.3,0.1,0.6,0.2,0.9,0.2c0.6,0,1.1-0.1,1.7-0.4c0.6-0.3,1.1-0.7,1.6-1.2c0.5-0.5,0.9-1.2,1.3-2
			c0.4-0.8,0.7-1.7,0.9-2.7L217.4,139.1z"/>
		<path class="st0" d="M231.5,151.6c-0.3,0.1-0.7,0.2-1.2,0.2c-0.5,0.1-1,0.1-1.5,0.1c-1.4,0-2.4-0.3-3.1-0.9c-0.7-0.6-1-1.3-1-2.3
			c0-0.4,0.1-0.8,0.2-1.4l2-9.6h-3.1l0.5-2.2h3.1l0.9-4.4h2.6l-0.9,4.4h4.2l-0.5,2.2h-4.2l-1.9,9c-0.1,0.3-0.1,0.5-0.1,0.8
			c0,0.2-0.1,0.4-0.1,0.6c0,0.6,0.2,1,0.5,1.2c0.3,0.2,0.8,0.3,1.6,0.3c0.3,0,0.7,0,1.2-0.1c0.5-0.1,0.9-0.1,1.2-0.2L231.5,151.6z"
			/>
		<path class="st0" d="M244.7,148.9c-0.4,0.6-0.8,1-1.2,1.4c-0.4,0.4-0.9,0.7-1.3,0.9c-0.4,0.2-0.9,0.4-1.3,0.5
			c-0.4,0.1-0.9,0.2-1.3,0.2c-0.7,0-1.3-0.1-1.9-0.4c-0.5-0.3-1-0.6-1.4-1.1c-0.4-0.5-0.7-1-0.8-1.7c-0.2-0.7-0.3-1.4-0.3-2.2
			c0-0.9,0.1-1.8,0.2-2.7c0.2-0.9,0.4-1.8,0.7-2.7c0.3-0.9,0.7-1.6,1.2-2.4c0.5-0.7,1-1.4,1.6-1.9c0.6-0.5,1.3-1,2-1.3
			c0.7-0.3,1.5-0.5,2.4-0.5c0.9,0,1.6,0.2,2.3,0.5c0.7,0.4,1.2,0.9,1.5,1.5h0.1l0.8-1.6h2.1l-2.6,12.3c-0.1,0.4-0.1,0.7-0.1,1
			c0,0.3,0.1,0.5,0.2,0.6c0.2,0.1,0.4,0.2,0.8,0.2c0.3,0,0.7,0,1.1-0.1l-0.5,2.2c-0.5,0.1-1,0.2-1.6,0.2c-0.9,0-1.6-0.2-2-0.7
			C244.9,150.7,244.8,149.9,244.7,148.9L244.7,148.9z M246.6,139.1c-0.1-0.2-0.3-0.4-0.5-0.6c-0.2-0.2-0.4-0.4-0.7-0.6
			c-0.3-0.2-0.5-0.3-0.9-0.4c-0.3-0.1-0.7-0.2-1.1-0.2c-0.7,0-1.3,0.1-1.8,0.4c-0.5,0.3-1,0.7-1.4,1.2c-0.4,0.5-0.8,1-1.1,1.6
			c-0.3,0.6-0.6,1.3-0.7,1.9c-0.2,0.7-0.3,1.3-0.4,1.9c-0.1,0.6-0.1,1.2-0.1,1.8c0,0.7,0.1,1.3,0.2,1.8c0.1,0.5,0.3,0.8,0.5,1.1
			c0.2,0.3,0.5,0.4,0.8,0.6c0.3,0.1,0.6,0.2,0.9,0.2c0.6,0,1.1-0.1,1.7-0.4c0.6-0.3,1.1-0.7,1.6-1.2c0.5-0.5,0.9-1.2,1.3-2
			c0.4-0.8,0.7-1.7,0.9-2.7L246.6,139.1z"/>
		<path class="st0" d="M257.2,151.6c-0.2,0-0.4,0.1-0.7,0.1c-0.3,0-0.6,0-0.9,0c-0.9,0-1.7-0.2-2.1-0.6c-0.5-0.4-0.7-1-0.7-1.8
			c0-0.3,0-0.7,0.1-1.2l4.4-21.2h2.6l-4.3,20.5c-0.1,0.5-0.2,0.9-0.2,1.1c0,0.3,0.1,0.5,0.2,0.6c0.2,0.1,0.4,0.2,0.8,0.2
			c0.4,0,0.7,0,1.1-0.1L257.2,151.6z"/>
		<path class="st0" d="M270.4,148.9c-0.4,0.6-0.8,1-1.2,1.4c-0.4,0.4-0.9,0.7-1.3,0.9c-0.4,0.2-0.9,0.4-1.3,0.5
			c-0.4,0.1-0.9,0.2-1.3,0.2c-0.7,0-1.3-0.1-1.9-0.4c-0.5-0.3-1-0.6-1.4-1.1c-0.4-0.5-0.7-1-0.8-1.7c-0.2-0.7-0.3-1.4-0.3-2.2
			c0-0.9,0.1-1.8,0.2-2.7c0.2-0.9,0.4-1.8,0.7-2.7c0.3-0.9,0.7-1.6,1.2-2.4c0.5-0.7,1-1.4,1.6-1.9c0.6-0.5,1.3-1,2-1.3
			c0.7-0.3,1.5-0.5,2.4-0.5c0.9,0,1.6,0.2,2.3,0.5c0.7,0.4,1.2,0.9,1.5,1.5h0.1l0.8-1.6h2.1l-2.6,12.3c-0.1,0.4-0.1,0.7-0.1,1
			c0,0.3,0.1,0.5,0.2,0.6c0.2,0.1,0.4,0.2,0.8,0.2c0.3,0,0.7,0,1.1-0.1l-0.5,2.2c-0.5,0.1-1,0.2-1.6,0.2c-0.9,0-1.6-0.2-2-0.7
			C270.7,150.7,270.5,149.9,270.4,148.9L270.4,148.9z M272.3,139.1c-0.1-0.2-0.3-0.4-0.5-0.6c-0.2-0.2-0.4-0.4-0.7-0.6
			c-0.3-0.2-0.5-0.3-0.9-0.4c-0.3-0.1-0.7-0.2-1.1-0.2c-0.7,0-1.3,0.1-1.8,0.4c-0.5,0.3-1,0.7-1.4,1.2c-0.4,0.5-0.8,1-1.1,1.6
			c-0.3,0.6-0.6,1.3-0.7,1.9c-0.2,0.7-0.3,1.3-0.4,1.9c-0.1,0.6-0.1,1.2-0.1,1.8c0,0.7,0.1,1.3,0.2,1.8c0.1,0.5,0.3,0.8,0.5,1.1
			c0.2,0.3,0.5,0.4,0.8,0.6c0.3,0.1,0.6,0.2,0.9,0.2c0.6,0,1.1-0.1,1.7-0.4c0.6-0.3,1.1-0.7,1.6-1.2c0.5-0.5,0.9-1.2,1.3-2
			c0.4-0.8,0.7-1.7,0.9-2.7L272.3,139.1z"/>
		<path class="st0" d="M282,139.8c0,0.3,0.1,0.6,0.2,0.9c0.1,0.3,0.3,0.5,0.6,0.7c0.2,0.2,0.5,0.3,0.8,0.5c0.3,0.1,0.6,0.3,1,0.4
			c0.5,0.2,1,0.4,1.5,0.5c0.5,0.2,0.9,0.4,1.3,0.8c0.4,0.3,0.7,0.7,1,1.2c0.3,0.5,0.4,1.1,0.4,1.8c0,0.9-0.2,1.7-0.5,2.3
			c-0.3,0.7-0.8,1.2-1.4,1.7c-0.6,0.5-1.3,0.8-2.1,1c-0.8,0.2-1.7,0.3-2.7,0.3c-0.9,0-1.7-0.1-2.6-0.3c-0.9-0.2-1.6-0.4-2.1-0.7
			l0.5-2.2c0.6,0.3,1.2,0.5,1.9,0.7c0.7,0.2,1.5,0.3,2.3,0.3c0.9,0,1.6-0.1,2.1-0.3c0.5-0.2,0.9-0.5,1.2-0.8
			c0.3-0.3,0.5-0.6,0.6-0.9c0.1-0.3,0.1-0.6,0.1-0.8c0-0.4-0.1-0.8-0.3-1.1c-0.2-0.3-0.5-0.5-0.8-0.7c-0.3-0.2-0.7-0.4-1.1-0.5
			c-0.4-0.2-0.8-0.3-1.3-0.5c-0.4-0.2-0.8-0.3-1.2-0.5c-0.4-0.2-0.8-0.4-1.1-0.7c-0.3-0.3-0.6-0.6-0.7-1.1c-0.2-0.4-0.3-0.9-0.3-1.5
			c0-0.9,0.2-1.6,0.5-2.2c0.3-0.6,0.7-1.2,1.3-1.6c0.5-0.4,1.1-0.7,1.8-0.9c0.7-0.2,1.4-0.3,2.2-0.3c0.5,0,0.9,0,1.4,0.1
			c0.4,0.1,0.9,0.1,1.3,0.2c0.4,0.1,0.8,0.2,1.2,0.3c0.4,0.1,0.7,0.3,1,0.4l-0.5,2.2c-0.7-0.3-1.4-0.5-2.1-0.7
			c-0.7-0.2-1.4-0.3-2.1-0.3c-0.5,0-1,0.1-1.4,0.2c-0.4,0.1-0.8,0.3-1,0.5c-0.3,0.2-0.5,0.5-0.6,0.8
			C282.1,139.1,282,139.4,282,139.8z"/>
		<path class="st0" d="M295.8,139.8c0,0.3,0.1,0.6,0.2,0.9c0.1,0.3,0.3,0.5,0.6,0.7c0.2,0.2,0.5,0.3,0.8,0.5c0.3,0.1,0.6,0.3,1,0.4
			c0.5,0.2,1,0.4,1.5,0.5c0.5,0.2,0.9,0.4,1.3,0.8c0.4,0.3,0.7,0.7,1,1.2c0.3,0.5,0.4,1.1,0.4,1.8c0,0.9-0.2,1.7-0.5,2.3
			c-0.3,0.7-0.8,1.2-1.4,1.7c-0.6,0.5-1.3,0.8-2.1,1c-0.8,0.2-1.7,0.3-2.7,0.3c-0.9,0-1.7-0.1-2.6-0.3c-0.9-0.2-1.6-0.4-2.1-0.7
			l0.5-2.2c0.6,0.3,1.2,0.5,1.9,0.7c0.7,0.2,1.5,0.3,2.3,0.3c0.9,0,1.6-0.1,2.1-0.3c0.5-0.2,0.9-0.5,1.2-0.8
			c0.3-0.3,0.5-0.6,0.6-0.9c0.1-0.3,0.1-0.6,0.1-0.8c0-0.4-0.1-0.8-0.3-1.1c-0.2-0.3-0.5-0.5-0.8-0.7c-0.3-0.2-0.7-0.4-1.1-0.5
			c-0.4-0.2-0.8-0.3-1.3-0.5c-0.4-0.2-0.8-0.3-1.2-0.5c-0.4-0.2-0.8-0.4-1.1-0.7c-0.3-0.3-0.6-0.6-0.7-1.1c-0.2-0.4-0.3-0.9-0.3-1.5
			c0-0.9,0.2-1.6,0.5-2.2c0.3-0.6,0.7-1.2,1.3-1.6c0.5-0.4,1.1-0.7,1.8-0.9c0.7-0.2,1.4-0.3,2.2-0.3c0.5,0,0.9,0,1.4,0.1
			c0.4,0.1,0.9,0.1,1.3,0.2c0.4,0.1,0.8,0.2,1.2,0.3c0.4,0.1,0.7,0.3,1,0.4l-0.5,2.2c-0.7-0.3-1.4-0.5-2.1-0.7
			c-0.7-0.2-1.4-0.3-2.1-0.3c-0.5,0-1,0.1-1.4,0.2c-0.4,0.1-0.8,0.3-1,0.5c-0.3,0.2-0.5,0.5-0.6,0.8
			C295.9,139.1,295.8,139.4,295.8,139.8z"/>
		<path class="st0" d="M319.5,139.2c0,1-0.2,1.8-0.7,2.5c-0.5,0.7-1.2,1.2-2.1,1.6c-0.9,0.4-2.1,0.7-3.4,0.9
			c-1.4,0.2-2.9,0.3-4.6,0.4c0,0.1,0,0.2,0,0.4c0,0.1,0,0.3,0,0.4c0,1.5,0.4,2.5,1.1,3.2c0.7,0.7,1.8,1,3.3,1c0.4,0,0.8,0,1.2-0.1
			s0.8-0.1,1.2-0.2c0.4-0.1,0.8-0.2,1.2-0.3c0.4-0.1,0.7-0.3,1-0.4L317,151c-0.6,0.3-1.2,0.5-2,0.7c-0.8,0.2-1.6,0.3-2.5,0.3
			c-1.1,0-2.1-0.2-3-0.5c-0.8-0.3-1.5-0.8-2-1.3c-0.5-0.6-0.9-1.2-1.2-2c-0.3-0.8-0.4-1.6-0.4-2.6c0-0.9,0.1-1.7,0.3-2.6
			c0.2-0.9,0.4-1.7,0.7-2.4c0.3-0.8,0.7-1.5,1.2-2.2c0.5-0.7,1.1-1.2,1.7-1.7c0.6-0.5,1.4-0.9,2.1-1.2c0.8-0.3,1.6-0.4,2.6-0.4
			c0.7,0,1.3,0.1,1.9,0.2c0.6,0.2,1.1,0.4,1.6,0.8c0.5,0.3,0.8,0.8,1.1,1.3C319.4,137.9,319.5,138.5,319.5,139.2z M309,142.3
			c1.2,0,2.3-0.1,3.3-0.2c1-0.1,1.8-0.3,2.5-0.6c0.7-0.3,1.2-0.6,1.5-1c0.4-0.4,0.5-0.9,0.5-1.5c0-0.2-0.1-0.5-0.2-0.7
			c-0.1-0.2-0.3-0.4-0.5-0.6c-0.2-0.2-0.5-0.3-0.7-0.4c-0.3-0.1-0.6-0.2-1-0.2c-0.6,0-1.2,0.1-1.8,0.4c-0.6,0.2-1.1,0.6-1.6,1
			c-0.5,0.4-0.9,1-1.3,1.6C309.5,140.9,309.2,141.6,309,142.3z"/>
		<path class="st0" d="M332.2,137.7c-0.3,0-0.7-0.1-1-0.1c-0.8,0-1.5,0.1-2.1,0.4c-0.6,0.3-1.2,0.6-1.6,1.1c-0.5,0.5-0.8,1-1.1,1.6
			c-0.3,0.6-0.5,1.3-0.7,1.9l-1.8,8.8h-2.6l3.3-16h2.1v2.2h0.1c0.3-0.4,0.6-0.7,0.9-1c0.3-0.3,0.7-0.6,1.1-0.8
			c0.4-0.2,0.8-0.4,1.3-0.6c0.5-0.1,1-0.2,1.6-0.2c0.2,0,0.4,0,0.6,0c0.2,0,0.4,0,0.6,0.1L332.2,137.7z"/>
		<path class="st0" d="M336.2,139.8c0,0.3,0.1,0.6,0.2,0.9s0.3,0.5,0.6,0.7c0.2,0.2,0.5,0.3,0.8,0.5c0.3,0.1,0.6,0.3,1,0.4
			c0.5,0.2,1,0.4,1.5,0.5c0.5,0.2,0.9,0.4,1.3,0.8c0.4,0.3,0.7,0.7,1,1.2c0.3,0.5,0.4,1.1,0.4,1.8c0,0.9-0.2,1.7-0.5,2.3
			c-0.3,0.7-0.8,1.2-1.4,1.7c-0.6,0.5-1.3,0.8-2.1,1c-0.8,0.2-1.7,0.3-2.7,0.3c-0.9,0-1.7-0.1-2.6-0.3c-0.9-0.2-1.6-0.4-2.1-0.7
			l0.5-2.2c0.6,0.3,1.2,0.5,1.9,0.7c0.7,0.2,1.5,0.3,2.3,0.3c0.9,0,1.6-0.1,2.1-0.3c0.5-0.2,0.9-0.5,1.2-0.8
			c0.3-0.3,0.5-0.6,0.6-0.9c0.1-0.3,0.1-0.6,0.1-0.8c0-0.4-0.1-0.8-0.3-1.1c-0.2-0.3-0.5-0.5-0.8-0.7c-0.3-0.2-0.7-0.4-1.1-0.5
			c-0.4-0.2-0.8-0.3-1.3-0.5c-0.4-0.2-0.8-0.3-1.2-0.5c-0.4-0.2-0.8-0.4-1.1-0.7c-0.3-0.3-0.6-0.6-0.7-1.1c-0.2-0.4-0.3-0.9-0.3-1.5
			c0-0.9,0.2-1.6,0.5-2.2c0.3-0.6,0.7-1.2,1.3-1.6c0.5-0.4,1.1-0.7,1.8-0.9c0.7-0.2,1.4-0.3,2.2-0.3c0.5,0,0.9,0,1.4,0.1
			c0.4,0.1,0.9,0.1,1.3,0.2c0.4,0.1,0.8,0.2,1.2,0.3c0.4,0.1,0.7,0.3,1,0.4l-0.5,2.2c-0.7-0.3-1.4-0.5-2.1-0.7
			c-0.7-0.2-1.4-0.3-2.1-0.3c-0.5,0-1,0.1-1.4,0.2c-0.4,0.1-0.8,0.3-1,0.5c-0.3,0.2-0.5,0.5-0.6,0.8
			C336.3,139.1,336.2,139.4,336.2,139.8z"/>
		<path class="st0" d="M356.1,151.8c-0.5,0-1-0.1-1.4-0.3c-0.4-0.2-0.7-0.5-1-0.8c-0.3-0.3-0.5-0.8-0.6-1.2c-0.1-0.5-0.2-1-0.2-1.6
			c0-0.7,0.1-1.4,0.2-2.1c0.1-0.7,0.3-1.3,0.5-2c0.2-0.6,0.5-1.2,0.9-1.7c0.3-0.5,0.7-1,1.2-1.4c0.4-0.4,0.9-0.7,1.5-0.9
			c0.5-0.2,1.1-0.3,1.7-0.3c0.7,0,1.3,0.1,1.7,0.4c0.5,0.3,0.8,0.6,1.1,1.1h0l1.5-7.3h1.9l-3.2,15.2c0,0.1,0,0.3-0.1,0.4
			c0,0.1,0,0.2,0,0.3c0,0.2,0.1,0.3,0.2,0.4c0.1,0.1,0.3,0.1,0.6,0.1c0.1,0,0.2,0,0.4,0c0.2,0,0.3,0,0.4-0.1l-0.3,1.6
			c-0.1,0-0.3,0.1-0.5,0.1c-0.2,0-0.4,0-0.6,0c-0.7,0-1.2-0.2-1.5-0.5c-0.3-0.3-0.4-0.9-0.4-1.6h0c-0.3,0.4-0.6,0.8-0.9,1
			c-0.3,0.3-0.7,0.5-1,0.7c-0.3,0.2-0.7,0.3-1,0.4C356.7,151.8,356.4,151.8,356.1,151.8z M361.3,142.4c-0.1-0.1-0.2-0.3-0.4-0.5
			c-0.2-0.2-0.3-0.3-0.5-0.4c-0.2-0.1-0.4-0.2-0.7-0.3c-0.3-0.1-0.5-0.1-0.8-0.1c-0.5,0-0.9,0.1-1.3,0.3c-0.4,0.2-0.8,0.5-1.1,0.8
			c-0.3,0.3-0.6,0.7-0.8,1.2c-0.2,0.4-0.4,0.9-0.6,1.4c-0.1,0.5-0.3,1-0.3,1.4c-0.1,0.5-0.1,0.9-0.1,1.3c0,0.5,0.1,0.9,0.2,1.3
			c0.1,0.3,0.2,0.6,0.4,0.8s0.4,0.3,0.6,0.4c0.2,0.1,0.4,0.1,0.7,0.1c0.4,0,0.8-0.1,1.2-0.3c0.4-0.2,0.8-0.5,1.2-0.9
			c0.4-0.4,0.7-0.9,1-1.5c0.3-0.6,0.5-1.2,0.7-2L361.3,142.4z"/>
		<path class="st0" d="M375.8,142.5c0,0.7-0.2,1.3-0.5,1.8c-0.4,0.5-0.9,0.9-1.6,1.2c-0.7,0.3-1.5,0.5-2.5,0.7
			c-1,0.1-2.1,0.2-3.4,0.3c0,0.1,0,0.2,0,0.3c0,0.1,0,0.2,0,0.3c0,1.1,0.3,1.9,0.8,2.3c0.5,0.5,1.3,0.7,2.4,0.7c0.3,0,0.6,0,0.9-0.1
			c0.3,0,0.6-0.1,0.9-0.2c0.3-0.1,0.6-0.2,0.9-0.2c0.3-0.1,0.5-0.2,0.7-0.3l-0.3,1.8c-0.4,0.2-0.9,0.4-1.5,0.5
			c-0.6,0.1-1.2,0.2-1.9,0.2c-0.8,0-1.6-0.1-2.2-0.3c-0.6-0.2-1.1-0.6-1.5-1c-0.4-0.4-0.7-0.9-0.9-1.5c-0.2-0.6-0.3-1.2-0.3-1.9
			c0-0.6,0.1-1.3,0.2-1.9c0.1-0.6,0.3-1.2,0.5-1.8c0.2-0.6,0.5-1.1,0.9-1.6c0.4-0.5,0.8-0.9,1.2-1.3c0.5-0.4,1-0.6,1.6-0.8
			c0.6-0.2,1.2-0.3,1.9-0.3c0.5,0,0.9,0.1,1.4,0.2c0.4,0.1,0.8,0.3,1.2,0.6c0.3,0.3,0.6,0.6,0.8,1
			C375.7,141.5,375.8,142,375.8,142.5z M368.1,144.8c0.9,0,1.7,0,2.4-0.1c0.7-0.1,1.3-0.2,1.8-0.4c0.5-0.2,0.9-0.4,1.1-0.7
			c0.3-0.3,0.4-0.6,0.4-1.1c0-0.2,0-0.3-0.1-0.5c-0.1-0.2-0.2-0.3-0.3-0.4c-0.1-0.1-0.3-0.2-0.5-0.3c-0.2-0.1-0.5-0.1-0.7-0.1
			c-0.5,0-0.9,0.1-1.3,0.3c-0.4,0.2-0.8,0.4-1.2,0.7c-0.4,0.3-0.7,0.7-0.9,1.2C368.5,143.7,368.3,144.2,368.1,144.8z"/>
		<path class="st0" d="M380,142.9c0,0.3,0.1,0.5,0.2,0.7c0.1,0.2,0.2,0.3,0.4,0.5c0.2,0.1,0.4,0.3,0.6,0.4c0.2,0.1,0.5,0.2,0.7,0.3
			c0.4,0.1,0.7,0.3,1.1,0.4c0.4,0.1,0.7,0.3,1,0.6c0.3,0.2,0.5,0.5,0.7,0.9s0.3,0.8,0.3,1.3c0,0.7-0.1,1.2-0.4,1.7
			c-0.2,0.5-0.6,0.9-1,1.2c-0.4,0.3-0.9,0.6-1.5,0.8c-0.6,0.2-1.2,0.3-2,0.3c-0.6,0-1.3-0.1-1.9-0.2c-0.6-0.1-1.2-0.3-1.5-0.5
			l0.4-1.6c0.4,0.2,0.9,0.4,1.4,0.5c0.5,0.1,1.1,0.2,1.7,0.2c0.6,0,1.2-0.1,1.6-0.2c0.4-0.2,0.7-0.3,0.9-0.6
			c0.2-0.2,0.4-0.4,0.4-0.7c0.1-0.2,0.1-0.4,0.1-0.6c0-0.3-0.1-0.6-0.2-0.8c-0.1-0.2-0.3-0.4-0.6-0.5c-0.2-0.1-0.5-0.3-0.8-0.4
			c-0.3-0.1-0.6-0.2-0.9-0.3c-0.3-0.1-0.6-0.2-0.9-0.4c-0.3-0.1-0.6-0.3-0.8-0.5c-0.2-0.2-0.4-0.5-0.5-0.8c-0.1-0.3-0.2-0.7-0.2-1.1
			c0-0.6,0.1-1.2,0.3-1.6c0.2-0.5,0.5-0.9,0.9-1.2c0.4-0.3,0.8-0.5,1.4-0.7c0.5-0.2,1.1-0.2,1.6-0.2c0.3,0,0.7,0,1,0.1
			c0.3,0,0.6,0.1,1,0.2c0.3,0.1,0.6,0.2,0.9,0.3s0.5,0.2,0.7,0.3l-0.3,1.6c-0.5-0.2-1-0.4-1.5-0.5s-1-0.2-1.6-0.2
			c-0.4,0-0.7,0-1.1,0.1c-0.3,0.1-0.6,0.2-0.8,0.4c-0.2,0.2-0.4,0.4-0.5,0.6C380.1,142.4,380,142.7,380,142.9z"/>
		<path class="st0" d="M395.8,151.8c-0.5,0-1-0.1-1.4-0.3c-0.4-0.2-0.7-0.5-1-0.8s-0.5-0.8-0.6-1.2c-0.1-0.5-0.2-1-0.2-1.6
			c0-0.7,0.1-1.4,0.2-2.1c0.1-0.7,0.3-1.3,0.5-2c0.2-0.6,0.5-1.2,0.9-1.7c0.3-0.5,0.7-1,1.2-1.4c0.4-0.4,0.9-0.7,1.5-0.9
			c0.5-0.2,1.1-0.3,1.7-0.3c0.7,0,1.3,0.1,1.7,0.4c0.5,0.3,0.8,0.6,1.1,1.1h0l1.5-7.3h1.9l-3.2,15.2c0,0.1,0,0.3-0.1,0.4
			c0,0.1,0,0.2,0,0.3c0,0.2,0.1,0.3,0.2,0.4c0.1,0.1,0.3,0.1,0.6,0.1c0.1,0,0.2,0,0.4,0c0.2,0,0.3,0,0.4-0.1l-0.3,1.6
			c-0.1,0-0.3,0.1-0.5,0.1c-0.2,0-0.4,0-0.6,0c-0.7,0-1.2-0.2-1.5-0.5c-0.3-0.3-0.4-0.9-0.4-1.6h0c-0.3,0.4-0.6,0.8-0.9,1
			c-0.3,0.3-0.7,0.5-1,0.7c-0.3,0.2-0.7,0.3-1,0.4C396.4,151.8,396.1,151.8,395.8,151.8z M401,142.4c-0.1-0.1-0.2-0.3-0.4-0.5
			s-0.3-0.3-0.5-0.4c-0.2-0.1-0.4-0.2-0.7-0.3s-0.5-0.1-0.8-0.1c-0.5,0-0.9,0.1-1.3,0.3c-0.4,0.2-0.8,0.5-1.1,0.8
			c-0.3,0.3-0.6,0.7-0.8,1.2c-0.2,0.4-0.4,0.9-0.6,1.4c-0.1,0.5-0.3,1-0.3,1.4c-0.1,0.5-0.1,0.9-0.1,1.3c0,0.5,0.1,0.9,0.2,1.3
			c0.1,0.3,0.2,0.6,0.4,0.8c0.2,0.2,0.4,0.3,0.6,0.4c0.2,0.1,0.4,0.1,0.7,0.1c0.4,0,0.8-0.1,1.2-0.3c0.4-0.2,0.8-0.5,1.2-0.9
			c0.4-0.4,0.7-0.9,1-1.5c0.3-0.6,0.5-1.2,0.7-2L401,142.4z"/>
		<path class="st0" d="M415.5,142.5c0,0.7-0.2,1.3-0.5,1.8c-0.4,0.5-0.9,0.9-1.6,1.2c-0.7,0.3-1.5,0.5-2.5,0.7
			c-1,0.1-2.1,0.2-3.4,0.3c0,0.1,0,0.2,0,0.3c0,0.1,0,0.2,0,0.3c0,1.1,0.3,1.9,0.8,2.3c0.5,0.5,1.3,0.7,2.4,0.7c0.3,0,0.6,0,0.9-0.1
			c0.3,0,0.6-0.1,0.9-0.2c0.3-0.1,0.6-0.2,0.9-0.2c0.3-0.1,0.5-0.2,0.7-0.3l-0.3,1.8c-0.4,0.2-0.9,0.4-1.5,0.5
			c-0.6,0.1-1.2,0.2-1.9,0.2c-0.8,0-1.6-0.1-2.2-0.3c-0.6-0.2-1.1-0.6-1.5-1c-0.4-0.4-0.7-0.9-0.9-1.5c-0.2-0.6-0.3-1.2-0.3-1.9
			c0-0.6,0.1-1.3,0.2-1.9c0.1-0.6,0.3-1.2,0.5-1.8c0.2-0.6,0.5-1.1,0.9-1.6c0.4-0.5,0.8-0.9,1.2-1.3c0.5-0.4,1-0.6,1.6-0.8
			c0.6-0.2,1.2-0.3,1.9-0.3c0.5,0,0.9,0.1,1.4,0.2c0.4,0.1,0.8,0.3,1.2,0.6c0.3,0.3,0.6,0.6,0.8,1
			C415.4,141.5,415.5,142,415.5,142.5z M407.8,144.8c0.9,0,1.7,0,2.4-0.1c0.7-0.1,1.3-0.2,1.8-0.4c0.5-0.2,0.9-0.4,1.1-0.7
			c0.3-0.3,0.4-0.6,0.4-1.1c0-0.2,0-0.3-0.1-0.5c-0.1-0.2-0.2-0.3-0.3-0.4c-0.1-0.1-0.3-0.2-0.5-0.3c-0.2-0.1-0.5-0.1-0.7-0.1
			c-0.5,0-0.9,0.1-1.3,0.3s-0.8,0.4-1.2,0.7c-0.4,0.3-0.7,0.7-0.9,1.2C408.1,143.7,407.9,144.2,407.8,144.8z"/>
	</g>
	<g>
		<path class="st0" d="M441.8,147.1l-0.6,5.5h-15.1l0.6-5.5h5.2l2-17.4l-4.1,2.3l-1.5-5l8.8-4.9h3l-2.8,25H441.8z"/>
		<path class="st0" d="M465.9,137.1c-1.1,9.7-6.2,16.1-12.9,16.1c-2.9,0-4.9-1.1-6.5-2.3l2.2-4.7c1.3,0.9,2.8,1.4,4.4,1.4
			c3.4,0,6.3-3.3,7.3-8.2c-1.9,1.4-4,1.9-5.9,1.9c-4.8,0-8.4-3.5-7.7-9.8c0.7-6.1,5.2-10,10.5-10C464.6,121.6,466.9,129,465.9,137.1
			z M457,127.1c-2.6,0-4.7,2-5.1,5.3c-0.3,2.6,0.8,3.8,3,3.8c2,0,4-0.7,5.8-1.9C461.1,129.6,460,127.1,457,127.1L457,127.1z"/>
		<path class="st0" d="M487.9,126.5l-13.2,26.2h-6.1l13.2-25h-12l0.6-5.5h17.9L487.9,126.5L487.9,126.5z"/>
		<path class="st0" d="M507.4,126.5l-13.2,26.2h-6.1l13.2-25h-12l0.6-5.5h17.9L507.4,126.5L507.4,126.5z"/>
	</g>
	<path class="st0" d="M513.3,160.2c-8.4-0.5-16.8-0.7-25.1-0.4c-8.4,0.3-16.7,1-25,2.2c-8.3,1.2-16.4,3.1-24.4,5.3
		c-8,2.2-15.9,4.9-23.6,8.3l-0.1-0.2c3.5-2.3,7.2-4.4,11.1-6.1c1-0.4,1.9-0.9,2.9-1.3l3-1.1c2-0.8,4-1.4,6-2.1
		c8.1-2.5,16.5-3.9,24.9-4.8c8.4-1,16.8-1.4,25.2-1.4c8.4,0,16.8,0.5,25.2,1.4L513.3,160.2z"/>
</g>
<g>
	<g>
		<path class="st0" d="M182.5,41.1c3.2,0,6.1,0.4,8.7,1.3c2.6,0.9,4.8,2.1,6.6,3.8c1.8,1.7,3.3,3.8,4.3,6.4c1,2.6,1.5,5.6,1.5,9
			c0,4.8-0.7,9.3-2,13.7c-1.3,4.4-3.2,8.2-5.8,11.6c-2.5,3.3-5.7,6-9.5,8c-3.8,2-8.2,3-13.2,3c-3.2,0-6-0.4-8.6-1.3
			c-2.6-0.9-4.8-2.1-6.7-3.8c-1.8-1.7-3.3-3.8-4.3-6.4c-1-2.6-1.5-5.6-1.5-9c0-4.8,0.6-9.3,2-13.7c1.3-4.4,3.2-8.2,5.8-11.6
			c2.5-3.3,5.7-6,9.5-8S177.6,41.1,182.5,41.1z M181.4,52c-1.8,0-3.4,0.4-4.9,1.1c-1.5,0.7-2.8,1.7-4,2.9c-1.2,1.2-2.2,2.7-3.1,4.3
			c-0.9,1.6-1.6,3.4-2.2,5.3c-0.6,1.9-1,3.8-1.3,5.8c-0.3,2-0.4,3.9-0.4,5.8c0,3.1,0.7,5.5,2.1,7.3c1.4,1.8,3.7,2.7,6.8,2.7
			c1.8,0,3.4-0.4,4.9-1.1c1.5-0.7,2.8-1.7,4-2.9c1.2-1.2,2.2-2.7,3.1-4.3c0.9-1.6,1.6-3.4,2.2-5.3c0.6-1.9,1-3.8,1.3-5.8
			c0.3-2,0.4-3.9,0.4-5.8c0-3-0.7-5.5-2.2-7.2C186.7,52.8,184.5,52,181.4,52z"/>
		<path class="st0" d="M217.2,96.5h-13.2l11.2-54h11.2v6.8h0.2c0.9-1.1,1.9-2.1,3.1-3.1c1.2-1,2.5-1.8,4-2.6c1.5-0.7,3-1.3,4.7-1.8
			c1.7-0.4,3.5-0.7,5.3-0.7c2.1,0,4.1,0.3,6,0.9c1.9,0.6,3.5,1.5,5,2.7c1.4,1.2,2.6,2.6,3.4,4.3c0.8,1.7,1.2,3.7,1.2,5.9
			c0,1.4-0.1,2.9-0.4,4.6c-0.3,1.7-0.6,3.3-0.9,5l-6.6,31.9h-13.2l6.8-32.9c0.2-1.2,0.4-2.2,0.5-3.1c0.1-0.9,0.2-1.7,0.2-2.3
			c0-1.9-0.5-3.4-1.6-4.4c-1.1-1-2.7-1.6-4.9-1.6c-2.7,0-5.2,0.7-7.6,2.2c-2.3,1.5-4.3,3.5-5.9,6c-0.3,0.5-0.6,1-0.9,1.6
			c-0.3,0.6-0.5,1.2-0.8,1.9c-0.3,0.7-0.5,1.5-0.8,2.4c-0.2,0.9-0.5,2-0.8,3.2L217.2,96.5z"/>
		<path class="st0" d="M300.8,53.4h-14.1l-5.4,26c-0.2,0.8-0.3,1.5-0.4,2.1c-0.1,0.6-0.1,1.1-0.1,1.6c0,1.4,0.4,2.3,1.1,2.9
			c0.7,0.5,2,0.8,3.9,0.8c1.3,0,2.9-0.1,4.9-0.4c2-0.3,3.7-0.6,5.3-1l-2.2,11c-1.8,0.5-3.7,0.9-5.8,1.1c-2.1,0.3-4.1,0.4-5.9,0.4
			c-2.6,0-4.8-0.3-6.6-0.8c-1.9-0.5-3.4-1.3-4.6-2.3c-1.2-1-2.1-2.2-2.7-3.7c-0.6-1.5-0.9-3.1-0.9-4.9c0-0.6,0-1.4,0.1-2.3
			c0.1-0.9,0.2-1.9,0.5-3.1l5.7-27.4h-10.1l2.3-10.9h10l3.2-15.1h13.2l-3.1,15.1h14.1L300.8,53.4z"/>
		<path class="st0" d="M326.6,80.1c0-1.1-0.4-2-1.1-2.7c-0.7-0.7-1.6-1.3-2.7-1.9c-1.1-0.5-2.4-1-3.8-1.5c-1.4-0.4-2.9-0.9-4.3-1.5
			c-1.3-0.5-2.6-1.1-3.9-1.8c-1.2-0.7-2.4-1.6-3.3-2.7c-1-1.1-1.8-2.3-2.3-3.8c-0.6-1.5-0.9-3.2-0.9-5.2c0-3,0.6-5.7,1.7-7.9
			c1.2-2.2,2.7-4.1,4.6-5.6c1.9-1.5,4.2-2.6,6.7-3.3c2.6-0.7,5.3-1.1,8.1-1.1c1.6,0,3.2,0.1,4.8,0.3c1.6,0.2,3.2,0.5,4.7,0.8
			c1.5,0.4,3,0.8,4.4,1.2c1.4,0.5,2.7,1,3.8,1.5l-2.1,10.3c-2.8-1.2-5.5-2-8.2-2.6c-2.7-0.6-5.2-0.9-7.6-0.9c-2.6,0-4.5,0.5-5.9,1.6
			c-1.4,1-2.1,2.4-2.1,4.1c0,1,0.2,1.8,0.8,2.5c0.5,0.7,1.2,1.3,2,1.8c0.8,0.5,1.8,1,2.9,1.4c1.1,0.4,2.2,0.8,3.4,1.3
			c1.5,0.6,3.1,1.2,4.6,1.8c1.6,0.7,3,1.6,4.2,2.6c1.3,1.1,2.3,2.4,3.1,4c0.8,1.6,1.2,3.6,1.2,6c0,3.1-0.6,5.8-1.8,8.1
			c-1.2,2.3-2.8,4.3-5,5.9c-2.2,1.6-4.7,2.8-7.7,3.6c-3,0.8-6.3,1.2-9.9,1.2c-2,0-4-0.1-5.8-0.3c-1.8-0.2-3.5-0.5-4.9-0.8
			c-1.5-0.3-2.7-0.7-3.8-1.1c-1.1-0.4-2-0.7-2.6-1l2.2-10.5c2.5,1,4.9,1.7,7.4,2.3c2.5,0.5,5,0.8,7.6,0.8c3.7,0,6.5-0.6,8.5-1.9
			C325.6,84.1,326.6,82.3,326.6,80.1z"/>
		<path class="st0" d="M393.4,55.9c0,3-0.7,5.7-2.2,8.1c-1.5,2.4-3.6,4.4-6.5,6.1c-2.9,1.7-6.4,3-10.6,3.9c-4.2,0.9-9,1.3-14.5,1.3
			c-0.6,0-1.4,0-2.4-0.1v0.3c0,2,0.3,3.7,0.9,5.2c0.6,1.5,1.4,2.7,2.5,3.6c1.1,0.9,2.4,1.6,4,2c1.6,0.4,3.3,0.6,5.2,0.6
			c2.9,0,5.9-0.4,9.1-1.1c3.2-0.7,6-1.7,8.4-2.8l-2.4,11.6c-2.3,0.9-4.9,1.7-7.9,2.3c-3,0.6-6.1,0.9-9.5,0.9c-4,0-7.4-0.5-10.4-1.6
			c-2.9-1.1-5.4-2.6-7.3-4.5c-1.9-2-3.3-4.3-4.3-6.9c-0.9-2.7-1.4-5.6-1.4-8.9c0-2.9,0.3-5.7,0.9-8.5c0.6-2.8,1.5-5.5,2.6-8.1
			c1.2-2.6,2.6-5,4.3-7.2c1.7-2.2,3.7-4.1,5.9-5.7c2.2-1.6,4.8-2.9,7.6-3.8c2.8-0.9,5.8-1.4,9.1-1.4c2.9,0,5.4,0.4,7.8,1.1
			c2.3,0.7,4.3,1.7,5.9,3c1.6,1.3,2.9,2.8,3.8,4.7C393,51.7,393.4,53.7,393.4,55.9z M380.1,55.9c0-1.2-0.5-2.3-1.4-3.2
			c-1-0.9-2.4-1.3-4.4-1.3c-1.5,0-3,0.3-4.5,0.9c-1.5,0.6-3,1.5-4.3,2.6c-1.4,1.2-2.6,2.6-3.7,4.3c-1.1,1.7-1.9,3.6-2.6,5.8
			c3.9,0,7.3-0.3,9.9-0.8c2.7-0.5,4.8-1.2,6.5-2.1c1.6-0.9,2.8-1.8,3.5-2.9C379.8,58.2,380.1,57.1,380.1,55.9z"/>
		<path class="st0" d="M433.6,53.8c-1.6-0.4-3.1-0.6-4.6-0.6c-1.3,0-2.7,0.1-4.1,0.4c-1.4,0.3-2.7,0.8-4,1.5
			c-1.3,0.7-2.5,1.6-3.7,2.6c-1.2,1.1-2.2,2.5-3,4.1c-0.4,0.8-0.8,1.7-1.2,2.8c-0.4,1.1-0.8,2.7-1.2,4.6l-5.6,27.2H393l11.2-54h11.2
			v6.8h0.2c2.1-2.6,4.5-4.6,7.1-6c2.6-1.4,5.7-2.1,9.1-2.1c1.4,0,2.8,0.1,4.3,0.3L433.6,53.8z"/>
		<path class="st0" d="M470,53.8c-1.6-0.4-3.1-0.6-4.6-0.6c-1.3,0-2.7,0.1-4.1,0.4c-1.4,0.3-2.7,0.8-4,1.5c-1.3,0.7-2.5,1.6-3.7,2.6
			c-1.2,1.1-2.2,2.5-3,4.1c-0.4,0.8-0.8,1.7-1.2,2.8c-0.4,1.1-0.8,2.7-1.2,4.6l-5.6,27.2h-13.2l11.2-54h11.2v6.8h0.2
			c2.1-2.6,4.5-4.6,7.1-6c2.6-1.4,5.7-2.1,9.1-2.1c1.4,0,2.8,0.1,4.3,0.3L470,53.8z"/>
		<path class="st0" d="M512.2,83.5c0,1,0.3,1.7,0.8,2.1c0.5,0.4,1.3,0.6,2.3,0.6c1.1,0,2.4-0.1,4-0.3L517,96.6
			c-2.3,0.5-4.5,0.7-6.6,0.7c-3,0-5.4-0.7-6.9-2.1c-1.6-1.4-2.6-3.5-3-6.1h-0.2c-2.6,3.2-5.3,5.4-8.3,6.8c-3,1.4-5.8,2.1-8.7,2.1
			c-2.4,0-4.6-0.4-6.5-1.3c-1.9-0.9-3.6-2.2-4.9-3.8c-1.3-1.6-2.4-3.6-3.1-5.9c-0.7-2.3-1.1-4.9-1.1-7.7c0-3,0.3-6,0.8-9.1
			c0.5-3,1.3-6,2.3-8.8c1-2.8,2.2-5.4,3.7-7.9c1.5-2.5,3.2-4.6,5.1-6.4c1.9-1.8,4.1-3.3,6.5-4.3c2.4-1,5-1.6,7.8-1.6
			c2.6,0,5,0.5,7.3,1.6c2.3,1.1,4.3,2.8,6,5.1h0.2l2-5.4h11.3l-7.8,37.6c-0.1,0.7-0.3,1.4-0.3,2C512.3,82.7,512.2,83.2,512.2,83.5z
			 M504.6,56.1c-0.3-0.5-0.8-1-1.3-1.5c-0.5-0.5-1.2-0.9-1.9-1.3c-0.7-0.4-1.5-0.7-2.4-1c-0.9-0.3-1.8-0.4-2.8-0.4
			c-1.7,0-3.3,0.4-4.8,1.3c-1.4,0.8-2.7,2-3.8,3.3c-1.1,1.4-2.1,3-2.9,4.8c-0.8,1.8-1.5,3.7-2,5.6c-0.5,1.9-0.9,3.8-1.2,5.7
			c-0.3,1.9-0.4,3.6-0.4,5.2c0,3.2,0.5,5.5,1.5,7c1,1.5,2.4,2.2,4.3,2.2c1.9,0,3.8-0.6,5.7-1.9c1.9-1.3,3.6-3,5.1-5.3
			c1-1.5,1.9-3.2,2.6-5.1c0.7-1.9,1.3-4.1,1.9-6.5L504.6,56.1z"/>
		<path class="st0" d="M562.4,53.4h-14.1l-5.4,26c-0.2,0.8-0.3,1.5-0.4,2.1c-0.1,0.6-0.1,1.1-0.1,1.6c0,1.4,0.4,2.3,1.1,2.9
			c0.7,0.5,2,0.8,3.9,0.8c1.3,0,2.9-0.1,4.9-0.4c2-0.3,3.7-0.6,5.3-1l-2.2,11c-1.8,0.5-3.7,0.9-5.8,1.1c-2.1,0.3-4.1,0.4-5.9,0.4
			c-2.6,0-4.8-0.3-6.6-0.8c-1.9-0.5-3.4-1.3-4.6-2.3c-1.2-1-2.1-2.2-2.7-3.7c-0.6-1.5-0.9-3.1-0.9-4.9c0-0.6,0-1.4,0.1-2.3
			c0.1-0.9,0.2-1.9,0.5-3.1l5.7-27.4h-10.1l2.3-10.9h10l3.2-15.1h13.2l-3.1,15.1h14.1L562.4,53.4z"/>
	</g>
	<path class="st0" d="M78.5,62.5c1.6-25.8,0.7-50.3-18.2-50.3c-17.3,0-27.8,15.2-30,33.9c-0.9,7.9-9.1,54.3-9.1,54.3
		c-2.1,10.1-7.4,12.9-11.4,17.4c-2.1,2.2-7.6,4.8-4.4,8.6c2.3,2.7,12.3,1.6,14,0c10.5-9.5,15-17.6,16.7-27c1.7-10.9,6-39.3,7.8-49.2
		c1-5.5,3.7-22.2,12.3-22.2c8.5,0,9.3,13,9.1,19.6c0,10.5-4.1,57.1-5.1,63.4c-1,2.8,0.8,4.4,2.6,5c2.4,0.9,9,0.9,9,0.9
		c3.1,0,4.9-2.8,6.1-6.6C88.2,76.3,97.4,41,101.2,28.2c1.8-6.1,4.7-8.8,10.1-8.6c4.4,0.2,7.3,4.2,6.9,9.5c-0.8,12-8.6,77.6-9.3,86.4
		c-0.4,12.1,5.7,16.8,10.9,18.4c3.7,0.9,15.4,3.5,15.4,3.5c10.2,1.6,19.5,10.1,21.8,9.1c2.3-0.9,2.7-13-0.7-16.4
		c-6.7-6.7-20.5-8.9-20.5-8.9l-2.6-0.5c-4.5-1.7-8.6-1.6-7.7-8.4c1.3-10,7.8-82,7.8-82c0.9-12.1-2.3-26.3-20-26.3
		c-17.7,0-23.1,12.2-27,25.5C84.1,37.1,78.5,62.5,78.5,62.5z"/>
</g>
</svg>
